<?xml version="1.0" standalone="no"?>
<!DOCTYPE svg PUBLIC "-//W3C//DTD SVG 20010904//EN"
 "http://www.w3.org/TR/2001/REC-SVG-20010904/DTD/svg10.dtd">
<svg version="1.0" xmlns="http://www.w3.org/2000/svg"
 width="263.000000pt" height="69.000000pt" viewBox="0 0 263.000000 69.000000"
 preserveAspectRatio="xMidYMid meet">

<g transform="translate(0.000000,69.000000) scale(0.100000,-0.100000)"
fill="#000000" stroke="none">
<path d="M710 493 l0 -77 77 74 c43 41 79 76 82 78 2 1 -32 2 -77 2 l-82 0 0
-77z"/>
<path d="M618 486 c-38 -40 -68 -75 -68 -79 0 -4 32 -7 70 -7 l70 0 0 80 c0
44 -1 79 -2 79 -2 -1 -33 -34 -70 -73z"/>
<path d="M846 525 c-11 -8 -16 -15 -10 -15 5 0 18 7 28 15 11 8 16 15 10 15
-5 0 -18 -7 -28 -15z"/>
<path d="M450 460 l0 -60 33 0 c21 0 41 8 51 19 17 19 17 21 -15 60 -19 22
-42 41 -51 41 -15 0 -18 -9 -18 -60z"/>
<path d="M410 495 c-10 -12 -10 -15 4 -15 9 0 16 7 16 15 0 8 -2 15 -4 15 -2
0 -9 -7 -16 -15z"/>
<path d="M990 340 c0 -82 3 -100 15 -100 12 0 15 14 15 70 0 39 3 70 8 70 4 0
20 -21 35 -47 32 -52 23 -57 91 50 31 48 34 57 19 57 -11 0 -31 -20 -49 -50
l-31 -51 -33 51 c-20 31 -39 50 -51 50 -17 0 -19 -8 -19 -100z"/>
<path d="M1300 340 c0 -82 3 -100 15 -100 12 0 15 18 15 100 0 82 -3 100 -15
100 -12 0 -15 -18 -15 -100z"/>
<path d="M1450 433 c0 -4 15 -48 34 -98 22 -61 39 -91 50 -93 20 -4 20 -3 -24
118 -17 46 -34 76 -44 78 -9 2 -16 0 -16 -5z"/>
<path d="M1582 387 c-16 -38 -20 -60 -14 -77 7 -20 12 -13 39 54 27 66 28 76
14 76 -11 0 -25 -19 -39 -53z"/>
<path d="M1690 425 c0 -11 12 -15 44 -15 35 0 48 -5 60 -22 39 -56 5 -118 -64
-118 -29 0 -40 -4 -40 -15 0 -11 12 -15 45 -15 65 0 108 40 108 100 0 60 -43
100 -108 100 -33 0 -45 -4 -45 -15z"/>
<path d="M1910 340 c0 -82 3 -100 15 -100 12 0 15 18 15 100 0 82 -3 100 -15
100 -12 0 -15 -18 -15 -100z"/>
<path d="M2045 398 c0 -42 -1 -43 -32 -43 -23 0 -33 -5 -33 -15 0 -10 10 -15
33 -15 31 0 32 -1 32 -43 0 -33 4 -42 18 -42 15 0 17 11 17 100 0 89 -2 100
-17 100 -14 0 -18 -9 -18 -42z"/>
<path d="M2200 340 c0 -82 3 -100 15 -100 12 0 15 18 15 100 0 82 -3 100 -15
100 -12 0 -15 -18 -15 -100z"/>
<path d="M535 305 c43 -47 81 -85 85 -85 5 0 14 17 21 38 6 20 20 58 30 85
l19 47 -116 0 -116 0 77 -85z"/>
<path d="M1176 355 c-21 -31 -22 -115 -2 -115 11 0 15 18 18 70 2 39 2 70 2
70 -1 0 -9 -11 -18 -25z"/>
<path d="M655 248 c-17 -45 -31 -85 -33 -89 -2 -4 13 -16 33 -27 l35 -21 0
109 c0 61 -1 110 -3 110 -1 0 -16 -37 -32 -82z"/>
</g>
</svg>
